<svg width="20" height="25" viewBox="0 0 20 25" fill="none" xmlns="http://www.w3.org/2000/svg">
<path d="M3.90082 24.6328H18.2723C18.8278 24.6328 19.2979 24.177 19.2979 23.6073C19.2979 23.1515 18.9845 22.7669 18.5715 22.6245C17.2183 22.1687 16.962 20.3883 18.315 19.0637C18.7424 18.6649 19.2979 18.1379 19.2979 16.9984V4.26487C19.2979 1.8435 18.1014 0.632812 15.7085 0.632812H3.90082C1.50795 0.632812 0.325745 1.82926 0.325745 4.26487V21.0008C0.325745 23.4364 1.50795 24.6328 3.90082 24.6328ZM2.37679 17.7105V4.29334C2.37679 3.26783 2.93228 2.68387 4.00053 2.68387H15.6088C16.6771 2.68387 17.2326 3.26783 17.2326 4.29334V16.6993C17.2326 17.1124 16.9762 17.3545 16.5489 17.3545H4.1287C3.45927 17.3545 2.87531 17.4827 2.37679 17.7105ZM4.00053 22.5818C2.93228 22.5818 2.37679 21.9978 2.37679 20.9865C2.37679 20.0465 3.07472 19.4055 4.1287 19.4055H15.4237C15.5091 19.4055 15.5803 19.4055 15.6516 19.4055C15.21 20.488 15.2385 21.6275 15.6943 22.5818H4.00053ZM3.67292 18.4654H5.32515V2.21381H3.67292V18.4654ZM7.248 8.0251H15.2955C15.7513 8.0251 16.1216 7.65478 16.1216 7.19899C16.1216 6.75744 15.7513 6.38713 15.2955 6.38713H7.248C6.79222 6.38713 6.4219 6.75744 6.4219 7.19899C6.4219 7.65478 6.79222 8.0251 7.248 8.0251ZM7.248 11.1444H13.5151C13.9709 11.1444 14.3412 10.7741 14.3412 10.3183C14.3412 9.87674 13.9709 9.5064 13.5151 9.5064H7.248C6.79222 9.5064 6.4219 9.87674 6.4219 10.3183C6.4219 10.7741 6.79222 11.1444 7.248 11.1444Z" fill="black"/>
</svg>
