<svg width="20" height="25" viewBox="0 0 20 25" fill="none" xmlns="http://www.w3.org/2000/svg">
<path d="M0.325745 20.9541C0.325745 23.3883 1.50725 24.584 3.8987 24.584H15.6994C18.0909 24.584 19.2866 23.3883 19.2866 20.9541V4.21389C19.2866 1.79395 18.0909 0.583984 15.6994 0.583984H3.8987C1.50725 0.583984 0.325745 1.79395 0.325745 4.21389V20.9541ZM2.37558 20.9256V4.24234C2.37558 3.21744 2.93074 2.63379 4.01258 2.63379H15.5998C16.6674 2.63379 17.2225 3.21744 17.2225 4.24234V20.9256C17.2225 21.9505 16.6674 22.5342 15.5998 22.5342H4.01258C2.93074 22.5342 2.37558 21.9505 2.37558 20.9256Z" fill="black"/>
<path d="M8.21186 6.56261H14.8169C15.2439 6.56261 15.5998 6.20674 15.5998 5.77968C15.5998 5.35264 15.2439 4.98255 14.8169 4.98255H8.21186C7.78483 4.98255 7.42896 5.35264 7.42896 5.77968C7.42896 6.20674 7.78483 6.56261 8.21186 6.56261ZM8.21186 9.9078H14.8169C15.2581 9.9078 15.5998 9.56616 15.5998 9.1249C15.5998 8.69784 15.2581 8.35619 14.8169 8.35619H8.21186C7.77057 8.35619 7.42896 8.69784 7.42896 9.1249C7.42896 9.56616 7.77057 9.9078 8.21186 9.9078ZM8.21186 13.4523H14.8169C15.2439 13.4523 15.5998 13.0964 15.5998 12.6694C15.5998 12.2423 15.2581 11.9007 14.8169 11.9007H8.21186C7.77057 11.9007 7.42896 12.2423 7.42896 12.6694C7.42896 13.0964 7.78483 13.4523 8.21186 13.4523ZM5.05173 10.1783C5.63535 10.1783 6.10509 9.70851 6.10509 9.1249C6.10509 8.54126 5.63535 8.08574 5.05173 8.08574C4.48232 8.08574 4.01257 8.55548 4.01257 9.1249C4.01257 9.70851 4.48232 10.1783 5.05173 10.1783ZM5.05173 13.7227C5.63535 13.7227 6.10509 13.253 6.10509 12.6694C6.10509 12.0857 5.63535 11.6302 5.05173 11.6302C4.49657 11.6302 4.01257 12.1 4.01257 12.6694C4.01257 13.2388 4.49657 13.7227 5.05173 13.7227ZM5.05173 6.81884C5.63535 6.81884 6.10509 6.34909 6.10509 5.77968C6.10509 5.19606 5.63535 4.72632 5.05173 4.72632C4.49657 4.72632 4.01257 5.21029 4.01257 5.77968C4.01257 6.33484 4.49657 6.81884 5.05173 6.81884Z" fill="black"/>
</svg>
